<svg xmlns="http://www.w3.org/2000/svg" width="1539" height="270"><path fill="#fff" d="M1416.5 226c-57.8 0-104.5-45.4-104.5-101.5S1358.7 23 1416.5 23 1521 68.4 1521 124.5 1474.3 226 1416.5 226"/><g fill-rule="evenodd"><path fill="#282828" d="M92.9 1.6h59.6l-2 138c0 69.5-25.4 107.5-79.8 119.3-19.2 4.5-39.1 7.8-58.8 9.8L.5 269.9 0 205.4l10.2-.4c20-.8 40-4.3 59.2-10.4 10.6-4.1 23.4-14.2 22.1-54.6v-.2l1.4-86.7zm714.6 10.6c5.8 7.3 8.6 16.3 8.2 25.4v216.1H758v-135l-77.4 119.4c-3.4 5.3-8.2 10.1-13.7 13.3-5.4 3.3-11.1 4.9-17.8 4.8-12.9 0-25-7.1-31.5-18.7l-78.4-120.2v136.4h-57.9V35.1c-.5-8.3 2.3-16.9 8-23.7 6.2-6.5 14.5-9.9 22.8-9.6 11.1-.5 22.4 5.3 29.1 15.4l108.3 159.5L755.6 17.6C761.7 7.5 773 1.1 785.1 1.8c7.8-.3 16.5 3.4 22.4 10.4M1284 253.7h-67.1l-36.4-64-127.4.6-35.6 63.7h-69.8l138.2-231.8c3.4-7.2 9.4-13.1 16.6-16.7 17.3-7.9 38.2-.5 46.3 16.7zM1115.7 82.3l-28.8 48.3h58.2zm-672.4 94.6c1.6 21.7-7.8 43.3-25.1 57l-1.2.8c-20.2 11.8-42.8 18-65.9 18-3.2 0-55.4-.4-55.4-.4-6.7 0-13.7-.2-20.6-.5-7.3-.3-14.9-1.2-22.3-2.8q-11-2.4-21.4-7.1c-7.2-3.4-13.5-7.9-18.8-13.7l-.1-.1c-5.6-6.2-10.1-13.4-13-21.3-3.6-9.7-5.2-19.8-4.9-30.1V1.9h57v172.7c0 4.6 0 18.7 39.3 18.7h56.9c38.4 0 38.4-14.1 38.4-18.7V1.9h57.1zM855.8 4.2h59.8v250.5h-59.8z"/><path fill="#f8991d" d="M1521 60.9h.2c11.8 19.3 17.8 41.7 17.6 64.3 0 22.7-6.1 45-17.6 64.5l-3.6 5.2-7 9.4-7.8 8.8c-2.4 2.6-5.9 5-8.8 7.9-4.5 3.5-9.5 6.9-14.5 9.9l-5.3 3.5c-18.2 9.6-38.4 14.6-59 14.6-20.6.1-40.9-5.2-58.9-15.3-3.5-1.5-6.8-3.5-9.9-5.8l-9.4-7c-6.1-5.1-11.8-10.7-16.8-16.9-2.7-3-5-6.4-7-9.9l-3.5-4.7-5.8-10.5c-2.6-5.5-4.7-11.1-6.5-16.9-3.7-11.9-5.7-24.3-5.9-36.8.1-8.5 1.1-16.8 2.9-25.1 3.5-17.8 10.9-34.6 21.8-49.1q5.1-7.3 11.7-13.4l4.1-4.1 9.4-7.9 9.9-6.5 5.2-2.9C1374.5 6 1394.8.8 1415.4 1c20.7-.1 41 5.1 59 15.2l5.2 2.9 9.4 6.5 9.3 7.9 4.1 4.1c4.4 4 8.3 8.5 11.7 13.4 2.5 3.1 4.9 6.4 7 9.9zm-77.1 24.5-28-57.3-28.6 57.3-63.1 9.3 45.5 44.5-10.5 63.1 55.9-29.7 56.6 29.7-10.5-63.1 45.6-44.5z"/></g></svg>